<svg width="47" height="40" viewBox="0 0 47 40" fill="none" xmlns="http://www.w3.org/2000/svg">
<path d="M2 18.5C1.17157 18.5 0.5 19.1716 0.5 20C0.5 20.8284 1.17157 21.5 2 21.5L2 18.5ZM30.0607 21.0607C30.6464 20.4749 30.6464 19.5251 30.0607 18.9393L20.5147 9.3934C19.9289 8.80761 18.9792 8.80761 18.3934 9.3934C17.8076 9.97919 17.8076 10.9289 18.3934 11.5147L26.8787 20L18.3934 28.4853C17.8076 29.0711 17.8076 30.0208 18.3934 30.6066C18.9792 31.1924 19.9289 31.1924 20.5147 30.6066L30.0607 21.0607ZM2 21.5L29 21.5L29 18.5L2 18.5L2 21.5Z" fill="#FFC000"/>
<path d="M27 38C36.9411 38 45 29.9411 45 20C45 10.0589 36.9411 2 27 2" stroke="#FFC000" stroke-width="3.5" stroke-linecap="round"/>
</svg>
